<svg xmlns="http://www.w3.org/2000/svg" xmlns:xlink="http://www.w3.org/1999/xlink" viewBox="0 0 1400 625"><defs><style>.a{fill:#ec2079;}.b{fill:#ed1e79;}.c{fill:url(#a);}.d{font-size:191.42px;font-family:Corbel, Corbel;}.d,.e{fill:#fff;}.f{fill:#d4145a;}.g{fill:url(#b);}.h{fill:url(#c);}.i{fill:url(#d);}.j{fill:url(#e);}.k{fill:url(#f);}.l{fill:url(#g);}.m{fill:url(#h);}.n{fill:url(#i);}</style><linearGradient id="a" x1="295.09" y1="-90.9" x2="1558.12" y2="1203.45" gradientUnits="userSpaceOnUse"><stop offset="0" stop-color="#ff5ea4"/><stop offset="0.17" stop-color="#fb4f9a" stop-opacity="0.76"/><stop offset="0.48" stop-color="#f33588" stop-opacity="0.36"/><stop offset="0.69" stop-color="#ef247d" stop-opacity="0.1"/><stop offset="0.79" stop-color="#ed1e79" stop-opacity="0"/></linearGradient><linearGradient id="b" x1="97.15" y1="186.96" x2="2117.15" y2="294.96" xlink:href="#a"/><linearGradient id="c" x1="96.18" y1="204.97" x2="2116.18" y2="312.97" xlink:href="#a"/><linearGradient id="d" x1="96.52" y1="198.72" x2="2116.52" y2="306.72" xlink:href="#a"/><linearGradient id="e" x1="96.88" y1="191.87" x2="2116.88" y2="299.87" xlink:href="#a"/><linearGradient id="f" x1="98.48" y1="161.96" x2="2118.48" y2="269.96" xlink:href="#a"/><linearGradient id="g" x1="98.77" y1="156.55" x2="2118.77" y2="264.55" xlink:href="#a"/><linearGradient id="h" x1="96.63" y1="196.56" x2="2116.63" y2="304.56" xlink:href="#a"/><linearGradient id="i" x1="97.01" y1="189.56" x2="2117.01" y2="297.56" xlink:href="#a"/></defs><title>knackbusiness-08</title><path class="a" d="M232.36,287.69c-11.47,0-20.59-5.35-24.86-14.44C198.86,281,187.69,286,176.7,286H136.61c-19.68,0-31.43-15.93-26.18-35.52L152.07,95.06c5.25-19.59,25.54-35.52,45.22-35.52h40.09c10.78,0,19.18,4.78,23.71,12.32,8.82-7.79,19.84-12.32,30.34-12.32h42.34c13.47,0,23.66,7.41,26.6,19.33s-1.89,25.94-12.54,36.78l-51,51.91,22.82,66.1c3.77,10.91.36,24.62-8.88,35.79s-23.13,18.24-36.07,18.24Z"/><path class="a" d="M376.91,288c-9.24,0-16.73-3.51-21.54-9.27-7.89,5.76-17.26,9.27-26.51,9.27H294.48c-19.68,0-31.42-15.93-26.17-35.52l28.43-106.13c5.25-19.59,25.54-35.53,45.22-35.53h18.45a29.19,29.19,0,0,1,16.76,4.87c15.89-5.79,30.73-8.71,44.33-8.71,29.35,0,43.08,12.3,49.42,22.62,8.56,13.93,10,31.71,4.35,52.87l-18.76,70C451.26,272,431,288,411.29,288Z"/><path class="a" d="M468.12,290.61c-22.84,0-39.49-6.44-49.48-19.12-7.1-9-14.11-25.25-7.12-51.32a83.52,83.52,0,0,1,24.7-40.43l-1.8-16.28c-1-8.85,1.9-18.46,8.11-27.08a51.64,51.64,0,0,1,24.94-18.67,223,223,0,0,1,25.82-7,174.34,174.34,0,0,1,36-4c24.34,0,42,7.37,52.6,21.91,7.24,10,14.24,27.94,6.47,56.94l-17.93,66.89C565.21,272,544.93,288,525.25,288H508.8a25.11,25.11,0,0,1-12.93-3.34A70.64,70.64,0,0,1,468.12,290.61Z"/><path class="a" d="M602.53,290.61c-27.41,0-48.13-7.95-61.58-23.64-9.79-11.4-19.49-32.38-10.09-67.48A125,125,0,0,1,651.81,106.7c20.93,0,37.72,4.65,49.9,13.84,12.34,9.3,13.26,27.73,2.18,43.81l-14.54,21.09a52.73,52.73,0,0,1-13.21,13.23,25.13,25.13,0,0,1,6.13,13.24l3.23,21c2.47,16.08-8.32,34.51-25.65,43.82C642.75,286,623.47,290.61,602.53,290.61Z"/><path class="a" d="M731.88,288c-7.41,0-13.87-2.28-18.66-6.33a44.16,44.16,0,0,1-22,6.33H656.82c-19.68,0-31.43-15.93-26.18-35.52L673.32,93.18c5.24-19.59,25.53-35.53,45.21-35.53h34.38c19.68,0,31.43,15.94,26.18,35.53l-5.15,19.21a41.68,41.68,0,0,1,14.84-2.88c10.14,0,18.67,4.3,23.42,11.81l13.87,21.93c4.72,7.45,5.29,17.44,1.59,27.39a51,51,0,0,1-21.13,25l-5.73,3.49,12,34.85c3.74,10.92.33,24.62-8.91,35.78S780.74,288,767.82,288Z"/><path class="a" d="M908.87,290.37c-15.15,0-26.12-9.56-27.31-23.79l-.91-10.83H865l-5.51,8.74c-8.85,14-24.87,23.47-39.87,23.47H786.33c-11.82,0-21.29-5.79-25.34-15.51s-2.16-21.89,5-32.78l100.26-153c8.92-13.6,24.75-22.75,39.4-22.75H943.3c14.74,0,25.69,9.23,27.23,22.95L988,242.27c1.22,10.88-3.54,23.09-12.71,32.68s-21.8,15.42-33.57,15.42Z"/><path class="a" d="M945.36,340.61c-19.68,0-31.43-15.93-26.18-35.52l42.48-158.54C966.91,127,987.2,111,1006.88,111h17.19a26.67,26.67,0,0,1,9.26,1.59c1.18-.41,2.37-.81,3.56-1.2a94.59,94.59,0,0,1,28.81-4.71c26.19,0,46,7.81,58.91,23.21,13.57,16.2,16.52,39.05,8.79,67.9-7.78,29-23.05,52.17-45.38,68.74a119.81,119.81,0,0,1-59,23.26L1025,305.09c-5.25,19.59-25.54,35.52-45.22,35.52Z"/><path class="a" d="M1076.7,340.61c-19.68,0-31.43-15.93-26.18-35.52L1093,146.55c5.25-19.59,25.53-35.53,45.22-35.53h17.19a26.71,26.71,0,0,1,9.26,1.59c1.18-.41,2.37-.81,3.56-1.2A94.54,94.54,0,0,1,1197,106.7c26.18,0,46,7.81,58.91,23.21,13.56,16.2,16.52,39.05,8.79,67.9-7.78,29-23,52.17-45.38,68.74a119.81,119.81,0,0,1-59,23.26l-4.1,15.28c-5.24,19.59-25.53,35.52-45.21,35.52Z"/><rect class="b" x="-111.56" y="-33.78" width="1624" height="716.56"/><path d="M1511.94-33.28V682.28h-1623V-33.28h1623m1-1h-1625V683.28h1625V-34.28Z"/><rect class="c" x="-111.56" y="-33.78" width="1624" height="716.56"/><path d="M1511.94-33.28V682.28h-1623V-33.28h1623m1-1h-1625V683.28h1625V-34.28Z"/><text class="d" transform="translate(114.22 500.08)">for Business</text><path class="e" d="M240.43,309.69c-11.48,0-20.59-5.35-24.87-14.44C206.92,303,195.75,308,184.76,308H144.67c-19.68,0-31.42-15.93-26.17-35.52l41.64-155.42c5.25-19.59,25.53-35.52,45.21-35.52h40.1c10.78,0,19.18,4.78,23.71,12.32C278,86.07,289,81.54,299.5,81.54h42.34c13.46,0,23.65,7.41,26.59,19.33s-1.88,25.94-12.53,36.78l-51,51.91,22.81,66.1c3.77,10.91.37,24.62-8.88,35.79s-23.13,18.24-36.06,18.24Z"/><path class="e" d="M385,310c-9.25,0-16.74-3.51-21.54-9.27-7.89,5.76-17.27,9.27-26.51,9.27H302.55c-19.68,0-31.43-15.93-26.18-35.52l28.44-106.13c5.25-19.59,25.53-35.53,45.21-35.53h18.46a29.21,29.21,0,0,1,16.76,4.87c15.89-5.79,30.73-8.71,44.33-8.71,29.35,0,43.07,12.3,49.42,22.62,8.55,13.93,10,31.71,4.34,52.87l-18.76,70C459.32,294,439,310,419.36,310Z"/><path class="e" d="M476.19,312.61c-22.84,0-39.49-6.44-49.48-19.12-7.11-9-14.12-25.25-7.13-51.32a83.52,83.52,0,0,1,24.7-40.43l-1.8-16.28c-1-8.85,1.91-18.46,8.11-27.08a51.68,51.68,0,0,1,24.94-18.67,224.06,224.06,0,0,1,25.82-7,174.41,174.41,0,0,1,36-4c24.34,0,42,7.37,52.6,21.91,7.25,10,14.24,27.94,6.47,56.94l-17.92,66.89C573.28,294,553,310,533.31,310H516.87a25.14,25.14,0,0,1-12.94-3.34A70.56,70.56,0,0,1,476.19,312.61Z"/><path class="e" d="M610.6,312.61c-27.42,0-48.13-7.95-61.58-23.64-9.79-11.4-19.5-32.38-10.09-67.48a125.1,125.1,0,0,1,70.27-82.14,124.87,124.87,0,0,1,50.68-10.65c20.92,0,37.71,4.65,49.89,13.84,12.35,9.3,13.26,27.73,2.18,43.81l-14.54,21.09a52.53,52.53,0,0,1-13.2,13.23,25.13,25.13,0,0,1,6.13,13.24l3.23,21c2.46,16.08-8.32,34.51-25.65,43.82C650.82,308,631.53,312.61,610.6,312.61Z"/><path class="e" d="M740,310c-7.42,0-13.88-2.28-18.66-6.33a44.19,44.19,0,0,1-22,6.33H664.88c-19.68,0-31.42-15.93-26.17-35.52l42.67-159.26c5.25-19.59,25.53-35.53,45.21-35.53H761c19.68,0,31.42,15.94,26.17,35.53L782,134.39a41.64,41.64,0,0,1,14.84-2.88c10.13,0,18.67,4.3,23.42,11.81l13.87,21.93c4.71,7.45,5.29,17.44,1.58,27.39a50.88,50.88,0,0,1-21.12,25l-5.73,3.49,12,34.85c3.75,10.92.34,24.62-8.91,35.78S788.81,310,775.88,310Z"/><path class="e" d="M916.94,312.37c-15.15,0-26.13-9.56-27.32-23.79l-.9-10.83H873.08l-5.51,8.74c-8.85,14-24.87,23.47-39.87,23.47H794.39c-11.81,0-21.28-5.79-25.33-15.51s-2.17-21.89,5-32.78l100.26-153C883.2,95.05,899,85.9,913.69,85.9h37.67c14.75,0,25.69,9.23,27.24,22.95L996,264.27c1.22,10.88-3.53,23.09-12.71,32.68s-21.79,15.42-33.56,15.42Z"/><path class="e" d="M953.42,362.61c-19.68,0-31.42-15.93-26.17-35.52l42.48-158.54C975,149,995.26,133,1014.94,133h17.19a26.63,26.63,0,0,1,9.26,1.59q1.78-.62,3.57-1.2a94.53,94.53,0,0,1,28.8-4.71c26.19,0,46,7.81,58.92,23.21,13.56,16.2,16.51,39.05,8.78,67.9-7.78,29-23,52.17-45.38,68.74a119.74,119.74,0,0,1-59,23.26L1033,327.09c-5.25,19.59-25.53,35.52-45.21,35.52Z"/><path class="e" d="M1084.76,362.61c-19.68,0-31.42-15.93-26.17-35.52l42.48-158.54C1106.32,149,1126.6,133,1146.28,133h17.19a26.63,26.63,0,0,1,9.26,1.59c1.19-.41,2.37-.81,3.56-1.2a94.59,94.59,0,0,1,28.81-4.71c26.19,0,46,7.81,58.91,23.21,13.57,16.2,16.52,39.05,8.79,67.9-7.78,29-23,52.17-45.38,68.74a119.74,119.74,0,0,1-59,23.26l-4.09,15.28c-5.25,19.59-25.53,35.52-45.22,35.52Z"/><path class="f" d="M244.6,276.88l-23.54-65.47c-.81-2.26-4.67-1.29-5.37,1.36l-16,59.71a7.44,7.44,0,0,1-6.81,5.23H152.79a3.94,3.94,0,0,1-4-5.23l41.64-155.42a7.44,7.44,0,0,1,6.81-5.23h40.09a3.94,3.94,0,0,1,4,5.23l-14.81,55.27c-.7,2.62,2.56,3.61,4.6,1.4l55.05-59.48a7.34,7.34,0,0,1,5.21-2.42h42.34c4.36,0,5.65,4.74,2.25,8.21L270.28,186.9a2.84,2.84,0,0,0-.86,2.82l28.23,81.77c1.2,3.49-2.58,7.9-6.77,7.9H248.54A4,4,0,0,1,244.6,276.88Z"/><path class="f" d="M371.45,201.3l-19.6,73.14a7.42,7.42,0,0,1-6.8,5.23H310.66a3.94,3.94,0,0,1-4-5.23L335.1,168.31a7.44,7.44,0,0,1,6.81-5.23h18.45a4,4,0,0,1,3.91,2.41L368,175.1q30.57-15.87,53.41-15.87,21.85,0,29.46,12.38T453,204.43l-18.76,70a7.44,7.44,0,0,1-6.81,5.23H393.09a3.94,3.94,0,0,1-4-5.23l17.67-65.93q1.61-6-.31-10t-8.87-4a50.63,50.63,0,0,0-11.72,2A129,129,0,0,0,371.45,201.3Z"/><path class="f" d="M476.1,196.52l-2.41-21.78c-.3-2.69,1.9-5.65,4.93-6.69a187,187,0,0,1,21.47-5.82A140.6,140.6,0,0,1,529.27,159q24.08,0,33.51,13t3.38,35.58l-17.92,66.89a7.45,7.45,0,0,1-6.81,5.23H525l-6.61-8.21c-1.62-2-5.06-1.93-7.69.16q-13.44,10.69-26.38,10.7-22.33,0-30.86-10.82t-3.57-29.33Q459,208,506.19,208h14.4q.81-6.72-2.38-10.1t-9.65-3.36a71.62,71.62,0,0,0-15.07,2q-6,1.35-11.39,3C479.07,200.62,476.39,199.21,476.1,196.52Zm11.71,44.93c-.65,2.4-.39,4.37.78,5.89a6.15,6.15,0,0,0,5.22,2.28q7.69,0,17.63-6.49l3-11.06H500.5a13.13,13.13,0,0,0-8,2.65A12.09,12.09,0,0,0,487.81,241.45Z"/><path class="f" d="M687.18,174.59l-14.53,21.08c-1.88,2.73-5.47,4-7.93,2.81a39.51,39.51,0,0,0-6.71-2.59,43.37,43.37,0,0,0-11.31-1.32q-9.45,0-18.51,7.45a36.84,36.84,0,0,0-12.3,19.47q-3.15,11.79,2,18.52t14.83,6.73a53.61,53.61,0,0,0,12-1.33,57.2,57.2,0,0,0,8.08-2.54c3.11-1.2,6,.07,6.45,2.8l3.23,21.05c.36,2.34-1.25,5-3.81,6.39q-17.15,9.21-40,9.21-29.81,0-43.52-16t-6-44.84a84.14,84.14,0,0,1,17.27-33.41,80.41,80.41,0,0,1,29-21.64A89,89,0,0,1,651.76,159q22.83,0,35,9.21C688.62,169.57,688.8,172.25,687.18,174.59Z"/><path class="f" d="M722.14,244.77l-7.95,29.67a7.44,7.44,0,0,1-6.81,5.23H673a3.94,3.94,0,0,1-4-5.23l42.67-159.26a7.44,7.44,0,0,1,6.81-5.23h34.38a3.94,3.94,0,0,1,4,5.23l-18.77,70c-1.19,4.45,3.54,6.87,7.82,4l39-26.18c2.75-1.85,6.05-1.6,7.41.55l13.87,21.93c1.45,2.29.14,5.8-2.86,7.62l-28.11,17.12c-2.63,1.61-4,4.56-3.24,6.85l18.78,54.66c1.2,3.49-2.58,7.9-6.76,7.9H748.06a3.94,3.94,0,0,1-4-2.78l-9.87-35.3c-.8-2.85-4.4-3.67-7.58-1.72l-1.19.73A7.25,7.25,0,0,0,722.14,244.77Z"/><path class="f" d="M799.34,272.6l100.26-153a7.48,7.48,0,0,1,6-3.39h37.68a3.88,3.88,0,0,1,4.15,3.42L964.84,275c.38,3.41-3.2,7-7,7H925.06a3.89,3.89,0,0,1-4.17-3.55L918.59,251a3.87,3.87,0,0,0-4.16-3.54H863.78a7.46,7.46,0,0,0-6,3.5l-15.89,25.21a7.47,7.47,0,0,1-6,3.5H802.51C798.74,279.67,797.1,276,799.34,272.6Zm82.24-59.52h33l-5-44.47Z"/><path class="f" d="M1106.34,174.37q12.87,15.39,4.83,45.44-8.18,30.54-29.72,46.52t-50.84,16a45.63,45.63,0,0,1-15.24-2.41l-12.64,47.18a7.44,7.44,0,0,1-6.81,5.23H961.54a3.94,3.94,0,0,1-4-5.23L1000,168.55a7.44,7.44,0,0,1,6.81-5.23H1024l5.14,6.73a94.6,94.6,0,0,1,18.18-8.06,59.83,59.83,0,0,1,18.31-3Q1093.45,159,1106.34,174.37ZM1053.11,241q7.77-7.69,11.32-20.92t-.27-20.31q-3.81-7.1-14.48-7.09-5.22,0-11.89,3.6l-13.21,49.28a27.34,27.34,0,0,0,12.07,3.13Q1045.34,248.66,1053.11,241Z"/><path class="f" d="M1237.68,174.37q12.87,15.39,4.83,45.44-8.19,30.54-29.72,46.52t-50.84,16a45.54,45.54,0,0,1-15.24-2.41l-12.64,47.18a7.44,7.44,0,0,1-6.81,5.23h-34.38a3.94,3.94,0,0,1-4-5.23l42.48-158.54a7.42,7.42,0,0,1,6.8-5.23h17.19l5.15,6.73a94.79,94.79,0,0,1,18.17-8.06,59.88,59.88,0,0,1,18.31-3Q1224.79,159,1237.68,174.37ZM1184.45,241q7.77-7.69,11.32-20.92t-.27-20.31q-3.81-7.1-14.49-7.09-5.21,0-11.89,3.6l-13.2,49.28a27.34,27.34,0,0,0,12.07,3.13Q1176.68,248.66,1184.45,241Z"/><path class="g" d="M244.6,276.88l-23.54-65.47c-.81-2.26-4.67-1.29-5.37,1.36l-16,59.71a7.44,7.44,0,0,1-6.81,5.23H152.79a3.94,3.94,0,0,1-4-5.23l41.64-155.42a7.44,7.44,0,0,1,6.81-5.23h40.09a3.94,3.94,0,0,1,4,5.23l-14.81,55.27c-.7,2.62,2.56,3.61,4.6,1.4l55.05-59.48a7.34,7.34,0,0,1,5.21-2.42h42.34c4.36,0,5.65,4.74,2.25,8.21L270.28,186.9a2.84,2.84,0,0,0-.86,2.82l28.23,81.77c1.2,3.49-2.58,7.9-6.77,7.9H248.54A4,4,0,0,1,244.6,276.88Z"/><path class="h" d="M371.45,201.3l-19.6,73.14a7.42,7.42,0,0,1-6.8,5.23H310.66a3.94,3.94,0,0,1-4-5.23L335.1,168.31a7.44,7.44,0,0,1,6.81-5.23h18.45a4,4,0,0,1,3.91,2.41L368,175.1q30.57-15.87,53.41-15.87,21.85,0,29.46,12.38T453,204.43l-18.76,70a7.44,7.44,0,0,1-6.81,5.23H393.09a3.94,3.94,0,0,1-4-5.23l17.67-65.93q1.61-6-.31-10t-8.87-4a50.63,50.63,0,0,0-11.72,2A129,129,0,0,0,371.45,201.3Z"/><path class="i" d="M476.1,196.52l-2.41-21.78c-.3-2.69,1.9-5.65,4.93-6.69a187,187,0,0,1,21.47-5.82A140.6,140.6,0,0,1,529.27,159q24.08,0,33.51,13t3.38,35.58l-17.92,66.89a7.45,7.45,0,0,1-6.81,5.23H525l-6.61-8.21c-1.62-2-5.06-1.93-7.69.16q-13.44,10.69-26.38,10.7-22.33,0-30.86-10.82t-3.57-29.33Q459,208,506.19,208h14.4q.81-6.72-2.38-10.1t-9.65-3.36a71.62,71.62,0,0,0-15.07,2q-6,1.35-11.39,3C479.07,200.62,476.39,199.21,476.1,196.52Zm11.71,44.93c-.65,2.4-.39,4.37.78,5.89a6.15,6.15,0,0,0,5.22,2.28q7.69,0,17.63-6.49l3-11.06H500.5a13.13,13.13,0,0,0-8,2.65A12.09,12.09,0,0,0,487.81,241.45Z"/><path class="j" d="M687.18,174.59l-14.53,21.08c-1.88,2.73-5.47,4-7.93,2.81a39.51,39.51,0,0,0-6.71-2.59,43.37,43.37,0,0,0-11.31-1.32q-9.45,0-18.51,7.45a36.84,36.84,0,0,0-12.3,19.47q-3.15,11.79,2,18.52t14.83,6.73a53.61,53.61,0,0,0,12-1.33,57.2,57.2,0,0,0,8.08-2.54c3.11-1.2,6,.07,6.45,2.8l3.23,21.05c.36,2.34-1.25,5-3.81,6.39q-17.15,9.21-40,9.21-29.81,0-43.52-16t-6-44.84a84.14,84.14,0,0,1,17.27-33.41,80.41,80.41,0,0,1,29-21.64A89,89,0,0,1,651.76,159q22.83,0,35,9.21C688.62,169.57,688.8,172.25,687.18,174.59Z"/><path class="k" d="M722.14,244.77l-7.95,29.67a7.44,7.44,0,0,1-6.81,5.23H673a3.94,3.94,0,0,1-4-5.23l42.67-159.26a7.44,7.44,0,0,1,6.81-5.23h34.38a3.94,3.94,0,0,1,4,5.23l-18.77,70c-1.19,4.45,3.54,6.87,7.82,4l39-26.18c2.75-1.85,6.05-1.6,7.41.55l13.87,21.93c1.45,2.29.14,5.8-2.86,7.62l-28.11,17.12c-2.63,1.61-4,4.56-3.24,6.85l18.78,54.66c1.2,3.49-2.58,7.9-6.76,7.9H748.06a3.94,3.94,0,0,1-4-2.78l-9.87-35.3c-.8-2.85-4.4-3.67-7.58-1.72l-1.19.73A7.25,7.25,0,0,0,722.14,244.77Z"/><path class="l" d="M799.34,272.6l100.26-153a7.48,7.48,0,0,1,6-3.39h37.68a3.88,3.88,0,0,1,4.15,3.42L964.84,275c.38,3.41-3.2,7-7,7H925.06a3.89,3.89,0,0,1-4.17-3.55L918.59,251a3.87,3.87,0,0,0-4.16-3.54H863.78a7.46,7.46,0,0,0-6,3.5l-15.89,25.21a7.47,7.47,0,0,1-6,3.5H802.51C798.74,279.67,797.1,276,799.34,272.6Zm82.24-59.52h33l-5-44.47Z"/><path class="m" d="M1106.34,174.37q12.87,15.39,4.83,45.44-8.18,30.54-29.72,46.52t-50.84,16a45.63,45.63,0,0,1-15.24-2.41l-12.64,47.18a7.44,7.44,0,0,1-6.81,5.23H961.54a3.94,3.94,0,0,1-4-5.23L1000,168.55a7.44,7.44,0,0,1,6.81-5.23H1024l5.14,6.73a94.6,94.6,0,0,1,18.18-8.06,59.83,59.83,0,0,1,18.31-3Q1093.45,159,1106.34,174.37ZM1053.11,241q7.77-7.69,11.32-20.92t-.27-20.31q-3.81-7.1-14.48-7.09-5.22,0-11.89,3.6l-13.21,49.28a27.34,27.34,0,0,0,12.07,3.13Q1045.34,248.66,1053.11,241Z"/><path class="n" d="M1237.68,174.37q12.87,15.39,4.83,45.44-8.19,30.54-29.72,46.52t-50.84,16a45.54,45.54,0,0,1-15.24-2.41l-12.64,47.18a7.44,7.44,0,0,1-6.81,5.23h-34.38a3.94,3.94,0,0,1-4-5.23l42.48-158.54a7.42,7.42,0,0,1,6.8-5.23h17.19l5.15,6.73a94.79,94.79,0,0,1,18.17-8.06,59.88,59.88,0,0,1,18.31-3Q1224.79,159,1237.68,174.37ZM1184.45,241q7.77-7.69,11.32-20.92t-.27-20.31q-3.81-7.1-14.49-7.09-5.21,0-11.89,3.6l-13.2,49.28a27.34,27.34,0,0,0,12.07,3.13Q1176.68,248.66,1184.45,241Z"/></svg>