<?xml version="1.0" encoding="UTF-8" standalone="no"?>
<svg
   xmlns:dc="http://purl.org/dc/elements/1.1/"
   xmlns:cc="http://creativecommons.org/ns#"
   xmlns:rdf="http://www.w3.org/1999/02/22-rdf-syntax-ns#"
   xmlns:svg="http://www.w3.org/2000/svg"
   xmlns="http://www.w3.org/2000/svg"
   xmlns:sodipodi="http://sodipodi.sourceforge.net/DTD/sodipodi-0.dtd"
   xmlns:inkscape="http://www.inkscape.org/namespaces/inkscape"
   width="14"
   height="12"
   viewBox="0 0 14 12"
   fill="none"
   version="1.1"
   id="svg12"
   sodipodi:docname="closedpink.svg"
   inkscape:version="0.92.3 (2405546, 2018-03-11)">
  <metadata
     id="metadata18">
    <rdf:RDF>
      <cc:Work
         rdf:about="">
        <dc:format>image/svg+xml</dc:format>
        <dc:type
           rdf:resource="http://purl.org/dc/dcmitype/StillImage" />
        <dc:title></dc:title>
      </cc:Work>
    </rdf:RDF>
  </metadata>
  <defs
     id="defs16" />
  <sodipodi:namedview
     pagecolor="#ffffff"
     bordercolor="#666666"
     borderopacity="1"
     objecttolerance="10"
     gridtolerance="10"
     guidetolerance="10"
     inkscape:pageopacity="0"
     inkscape:pageshadow="2"
     inkscape:window-width="1280"
     inkscape:window-height="691"
     id="namedview14"
     showgrid="false"
     inkscape:zoom="19.666667"
     inkscape:cx="7"
     inkscape:cy="6"
     inkscape:window-x="0"
     inkscape:window-y="0"
     inkscape:window-maximized="1"
     inkscape:current-layer="svg12" />
  <path
     d="M11.7275 11.3144C11.6706 11.3145 11.6142 11.3033 11.5616 11.2815C11.5091 11.2597 11.4613 11.2277 11.4212 11.1874L1.8887 1.65489C1.81087 1.57297 1.76812 1.46389 1.76957 1.35091C1.77101 1.23792 1.81654 1.12997 1.89644 1.05007C1.97634 0.970166 2.08429 0.924639 2.19728 0.923192C2.31027 0.921746 2.41935 0.964494 2.50127 1.04232L12.0338 10.5748C12.0943 10.6354 12.1356 10.7126 12.1523 10.7966C12.169 10.8807 12.1604 10.9677 12.1276 11.0469C12.0948 11.126 12.0393 11.1937 11.9681 11.2413C11.8969 11.2889 11.8131 11.3144 11.7275 11.3144Z"
     fill="#8D8D8D"
     id="path2"
     style="fill:#e03170;fill-opacity:0.60000002" />
  <path
     d="M6.74482 7.73561L5.3423 6.33309C5.33426 6.32512 5.32393 6.31987 5.31276 6.31807C5.30158 6.31627 5.29013 6.31802 5.28 6.32307C5.26987 6.32812 5.26157 6.33622 5.25628 6.34622C5.25099 6.35623 5.24897 6.36764 5.2505 6.37885C5.30712 6.74272 5.47797 7.07916 5.73836 7.33955C5.99875 7.59994 6.33519 7.77079 6.69906 7.82741C6.71027 7.82894 6.72168 7.82692 6.73169 7.82163C6.74169 7.81633 6.74979 7.80804 6.75484 7.79791C6.75989 7.78778 6.76164 7.77633 6.75984 7.76515C6.75804 7.75398 6.75279 7.74365 6.74482 7.73561Z"
     fill="#8D8D8D"
     id="path4"
     style="fill:#e03170;fill-opacity:0.60000002" />
  <path
     d="M7.17795 4.49405L8.58264 5.8982C8.59066 5.90628 8.60102 5.91163 8.61225 5.91349C8.62348 5.91535 8.63501 5.91362 8.6452 5.90855C8.65539 5.90349 8.66373 5.89534 8.66903 5.88526C8.67433 5.87519 8.67632 5.8637 8.67471 5.85243C8.61824 5.48807 8.44726 5.15114 8.18654 4.89042C7.92582 4.6297 7.58889 4.45872 7.22453 4.40224C7.21325 4.4005 7.2017 4.40237 7.19154 4.40759C7.18139 4.4128 7.17314 4.42109 7.16797 4.43127C7.1628 4.44145 7.16099 4.453 7.16278 4.46428C7.16457 4.47555 7.16988 4.48597 7.17795 4.49405Z"
     fill="#8D8D8D"
     id="path6"
     style="fill:#e03170;fill-opacity:0.60000002" />
  <path
     d="M13.3254 6.585C13.415 6.44428 13.4624 6.28079 13.462 6.11394C13.4615 5.94708 13.4131 5.78387 13.3227 5.64367C12.6061 4.53551 11.6764 3.59418 10.6343 2.92122C9.47988 2.17595 8.20707 1.78192 6.95268 1.78192C6.2914 1.78283 5.6346 1.89065 5.00773 2.10121C4.99019 2.10704 4.97443 2.11727 4.96195 2.13092C4.94948 2.14457 4.94071 2.16118 4.93647 2.17918C4.93224 2.19718 4.93268 2.21596 4.93776 2.23374C4.94284 2.25152 4.95238 2.26771 4.96548 2.28075L6.24479 3.56006C6.25808 3.57337 6.27461 3.583 6.29275 3.58798C6.31088 3.59297 6.33001 3.59314 6.34824 3.58849C6.78187 3.48282 7.23541 3.49056 7.66518 3.61098C8.09496 3.73139 8.48649 3.96043 8.80209 4.27603C9.11769 4.59163 9.34673 4.98316 9.46714 5.41294C9.58756 5.84271 9.5953 6.29625 9.48963 6.72988C9.48503 6.74807 9.48523 6.76714 9.49021 6.78523C9.4952 6.80332 9.5048 6.8198 9.51806 6.83306L11.3582 8.67457C11.3774 8.69375 11.403 8.70505 11.4301 8.70625C11.4571 8.70746 11.4837 8.69847 11.5045 8.68107C12.2128 8.07732 12.8266 7.37077 13.3254 6.585Z"
     fill="#8D8D8D"
     id="path8"
     style="fill:#e03170;fill-opacity:0.60000002" />
  <path
     d="M6.96134 8.71462C6.56779 8.71464 6.17936 8.62531 5.82536 8.45337C5.47135 8.28143 5.161 8.03135 4.91771 7.72201C4.67441 7.41266 4.50453 7.05212 4.42086 6.66756C4.33719 6.28301 4.34192 5.88447 4.43469 5.50201C4.43929 5.48382 4.43909 5.46475 4.4341 5.44666C4.42912 5.42857 4.41952 5.41209 4.40625 5.39883L2.59616 3.58792C2.57697 3.56871 2.55126 3.5574 2.52412 3.55625C2.49699 3.5551 2.47041 3.56418 2.44965 3.5817C1.78915 4.14525 1.17685 4.83094 0.617086 5.63227C0.519103 5.7729 0.46514 5.93949 0.462054 6.11086C0.458968 6.28223 0.506899 6.45065 0.599755 6.59472C1.31496 7.71398 2.23517 8.65667 3.26127 9.32042C4.41736 10.0687 5.65929 10.4478 6.95268 10.4478C7.62064 10.446 8.28426 10.3405 8.91984 10.135C8.93754 10.1294 8.95349 10.1192 8.96615 10.1056C8.97882 10.092 8.98777 10.0754 8.99215 10.0574C8.99653 10.0393 8.99619 10.0204 8.99116 10.0025C8.98613 9.98463 8.97658 9.96833 8.96344 9.9552L7.6779 8.66994C7.66464 8.65667 7.64816 8.64707 7.63007 8.64209C7.61199 8.6371 7.59291 8.6369 7.57473 8.6415C7.3739 8.69017 7.16798 8.71471 6.96134 8.71462Z"
     fill="#8D8D8D"
     id="path10"
     style="fill:#e03170;fill-opacity:0.60000002" />
</svg>
