<?xml version="1.0" encoding="UTF-8" standalone="no"?>
<svg
   xmlns:dc="http://purl.org/dc/elements/1.1/"
   xmlns:cc="http://creativecommons.org/ns#"
   xmlns:rdf="http://www.w3.org/1999/02/22-rdf-syntax-ns#"
   xmlns:svg="http://www.w3.org/2000/svg"
   xmlns="http://www.w3.org/2000/svg"
   xmlns:xlink="http://www.w3.org/1999/xlink"
   height="282.92001"
   width="1159.7506"
   id="svg74"
   version="1.1"
   viewBox="0 0 1159.7506 282.92001">
  <metadata
     id="metadata78">
    <rdf:RDF>
      <cc:Work
         rdf:about="">
        <dc:format>image/svg+xml</dc:format>
        <dc:type
           rdf:resource="http://purl.org/dc/dcmitype/StillImage" />
        <dc:title>knackapp</dc:title>
      </cc:Work>
    </rdf:RDF>
  </metadata>
  <defs
     id="defs22">
    <style
       id="style2">.a{fill:#ec2079;}.b{fill:url(#a);}.c{fill:url(#b);}.d{fill:url(#c);}.e{fill:url(#d);}.f{fill:url(#e);}.g{fill:url(#f);}.h{fill:url(#g);}.i{fill:url(#h);}.j{fill:#fff;}</style>
    <linearGradient
       gradientUnits="userSpaceOnUse"
       gradientTransform="matrix(1,0,-0.27,1,1077.19,0)"
       y2="752.53003"
       x2="1270.35"
       y1="464.81"
       x1="-920.39001"
       id="a">
      <stop
         id="stop4"
         stop-color="#ff5ea4"
         offset="0" />
      <stop
         id="stop6"
         stop-opacity="0.76"
         stop-color="#fb4f9a"
         offset="0.17" />
      <stop
         id="stop8"
         stop-opacity="0.36"
         stop-color="#f33588"
         offset="0.48" />
      <stop
         id="stop10"
         stop-opacity="0.1"
         stop-color="#ef247d"
         offset="0.69" />
      <stop
         id="stop12"
         stop-opacity="0"
         stop-color="#ed1e79"
         offset="0.79" />
    </linearGradient>
    <linearGradient
       xlink:href="#a"
       y2="759.82001"
       x2="1269.4"
       y1="472.10001"
       x1="-921.34998"
       id="b" />
    <linearGradient
       xlink:href="#a"
       y2="743.06"
       x2="1271.6"
       y1="455.32999"
       x1="-919.15002"
       id="c" />
    <linearGradient
       xlink:href="#a"
       y2="726.84003"
       x2="1276.5601"
       y1="439.12"
       x1="-914.19"
       id="d" />
    <linearGradient
       xlink:href="#a"
       y2="691.08002"
       x2="1271.83"
       y1="403.35001"
       x1="-918.91998"
       id="e" />
    <linearGradient
       xlink:href="#a"
       y2="673.39001"
       x2="1274.15"
       y1="385.67001"
       x1="-916.59998"
       id="f" />
    <linearGradient
       xlink:href="#a"
       y2="700.10999"
       x2="1270.64"
       y1="412.39001"
       x1="-920.10999"
       id="g" />
    <linearGradient
       xlink:href="#a"
       y2="683.15997"
       x2="1272.87"
       y1="395.42999"
       x1="-917.88"
       id="h" />
    <linearGradient
       y2="752.53003"
       x2="1270.35"
       y1="464.81"
       x1="-920.39001"
       gradientTransform="matrix(1,0,-0.27,1,1077.19,0)"
       gradientUnits="userSpaceOnUse"
       id="linearGradient986"
       xlink:href="#a" />
  </defs>
  <title
     id="title24">knackapp</title>
  <g
     transform="translate(-60.248321,-370.69)"
     id="g984">
    <path
       style="fill:#ec2079"
       class="a"
       d="m 183.43,600.69 c -11.48,0 -20.59,-5.35 -24.87,-14.44 C 149.92,594 138.75,599 127.76,599 H 87.67 C 68,599 56.25,583.07 61.5,563.48 l 41.64,-155.42 c 5.25,-19.59 25.53,-35.52 45.21,-35.52 h 40.1 c 10.78,0 19.18,4.78 23.71,12.32 8.81,-7.79 19.84,-12.32 30.34,-12.32 h 42.34 c 13.46,0 23.65,7.41 26.59,19.33 2.94,11.92 -1.88,25.94 -12.53,36.78 l -51,51.91 22.81,66.1 c 3.77,10.91 0.37,24.62 -8.88,35.79 -9.25,11.17 -23.13,18.24 -36.06,18.24 z"
       id="path26" />
    <path
       style="fill:#ec2079"
       class="a"
       d="m 328,601 c -9.25,0 -16.74,-3.51 -21.54,-9.27 -7.89,5.76 -17.27,9.27 -26.51,9.27 h -34.4 c -19.68,0 -31.43,-15.93 -26.18,-35.52 l 28.44,-106.13 c 5.25,-19.59 25.53,-35.53 45.21,-35.53 h 18.46 a 29.21,29.21 0 0 1 16.76,4.87 c 15.89,-5.79 30.73,-8.71 44.33,-8.71 29.35,0 43.07,12.3 49.42,22.62 8.55,13.93 10,31.71 4.34,52.87 l -18.76,70 C 402.32,585 382,601 362.36,601 Z"
       id="path28" />
    <path
       style="fill:#ec2079"
       class="a"
       d="m 419.19,603.61 c -22.84,0 -39.49,-6.44 -49.48,-19.12 -7.11,-9 -14.12,-25.25 -7.13,-51.32 a 83.52,83.52 0 0 1 24.7,-40.43 l -1.8,-16.28 c -1,-8.85 1.91,-18.46 8.11,-27.08 a 51.68,51.68 0 0 1 24.94,-18.67 224.06,224.06 0 0 1 25.82,-7 174.41,174.41 0 0 1 36,-4 c 24.34,0 42,7.37 52.6,21.91 7.25,10 14.24,27.94 6.47,56.94 L 521.5,565.45 C 516.28,585 496,601 476.31,601 h -16.44 a 25.14,25.14 0 0 1 -12.94,-3.34 70.56,70.56 0 0 1 -27.74,5.95 z"
       id="path30" />
    <path
       style="fill:#ec2079"
       class="a"
       d="m 553.6,603.61 c -27.42,0 -48.13,-8 -61.58,-23.64 -9.79,-11.4 -19.5,-32.38 -10.09,-67.48 a 125.1,125.1 0 0 1 70.27,-82.14 124.87,124.87 0 0 1 50.68,-10.65 c 20.92,0 37.71,4.65 49.89,13.84 12.35,9.3 13.26,27.73 2.18,43.81 l -14.54,21.09 a 52.53,52.53 0 0 1 -13.2,13.23 25.13,25.13 0 0 1 6.13,13.24 l 3.23,21 c 2.46,16.08 -8.32,34.51 -25.65,43.82 -17.1,9.27 -36.39,13.88 -57.32,13.88 z"
       id="path32" />
    <path
       style="fill:#ec2079"
       class="a"
       d="m 683,601 c -7.42,0 -13.88,-2.28 -18.66,-6.33 a 44.19,44.19 0 0 1 -22,6.33 h -34.46 c -19.68,0 -31.42,-15.93 -26.17,-35.52 l 42.67,-159.26 c 5.25,-19.59 25.53,-35.53 45.21,-35.53 H 704 c 19.68,0 31.42,15.94 26.17,35.53 L 725,425.39 a 41.64,41.64 0 0 1 14.84,-2.88 c 10.13,0 18.67,4.3 23.42,11.81 l 13.87,21.93 c 4.71,7.45 5.29,17.44 1.58,27.39 a 50.88,50.88 0 0 1 -21.12,25 l -5.73,3.49 12,34.85 c 3.75,10.92 0.34,24.62 -8.91,35.78 C 745.7,593.92 731.81,601 718.88,601 Z"
       id="path34" />
    <path
       style="fill:#ec2079"
       class="a"
       d="m 859.94,603.37 c -15.15,0 -26.13,-9.56 -27.32,-23.79 l -0.9,-10.83 h -15.64 l -5.51,8.74 c -8.85,14 -24.87,23.47 -39.87,23.47 h -33.31 c -11.81,0 -21.28,-5.79 -25.33,-15.51 -4.05,-9.72 -2.17,-21.89 5,-32.78 l 100.26,-153 c 8.91,-13.6 24.74,-22.75 39.4,-22.75 h 37.67 c 14.75,0 25.69,9.23 27.24,23 L 939,555.27 c 1.22,10.88 -3.53,23.09 -12.71,32.68 -9.18,9.59 -21.79,15.42 -33.56,15.42 z"
       id="path36" />
    <path
       style="fill:#ec2079"
       class="a"
       d="m 896.42,653.61 c -19.68,0 -31.42,-15.93 -26.17,-35.52 L 912.73,459.55 C 918,440 938.26,424 957.94,424 h 17.19 a 26.63,26.63 0 0 1 9.26,1.59 q 1.79,-0.62 3.57,-1.2 a 94.53,94.53 0 0 1 28.8,-4.71 c 26.19,0 46,7.81 58.92,23.21 13.56,16.2 16.51,39 8.78,67.9 -7.78,29 -23,52.17 -45.38,68.74 a 119.74,119.74 0 0 1 -59,23.26 l -4.08,15.3 c -5.25,19.59 -25.53,35.52 -45.21,35.52 z"
       id="path38" />
    <path
       style="fill:#ec2079"
       class="a"
       d="m 1027.76,653.61 c -19.68,0 -31.42,-15.93 -26.17,-35.52 l 42.48,-158.54 C 1049.32,440 1069.6,424 1089.28,424 h 17.19 a 26.63,26.63 0 0 1 9.26,1.59 c 1.19,-0.41 2.37,-0.81 3.56,-1.2 a 94.59,94.59 0 0 1 28.81,-4.71 c 26.19,0 46,7.81 58.91,23.21 13.57,16.2 16.52,39 8.79,67.9 -7.78,29 -23,52.17 -45.38,68.74 a 119.74,119.74 0 0 1 -59,23.26 l -4.09,15.28 c -5.25,19.59 -25.53,35.52 -45.22,35.52 z"
       id="path40" />
    <path
       style="fill:url(#linearGradient986)"
       class="b"
       d="m 183.43,600.69 c -11.48,0 -20.59,-5.35 -24.87,-14.44 C 149.92,594 138.75,599 127.76,599 H 87.67 C 68,599 56.25,583.07 61.5,563.48 l 41.64,-155.42 c 5.25,-19.59 25.53,-35.52 45.21,-35.52 h 40.1 c 10.78,0 19.18,4.78 23.71,12.32 8.81,-7.79 19.84,-12.32 30.34,-12.32 h 42.34 c 13.46,0 23.65,7.41 26.59,19.33 2.94,11.92 -1.88,25.94 -12.53,36.78 l -51,51.91 22.81,66.1 c 3.77,10.91 0.37,24.62 -8.88,35.79 -9.25,11.17 -23.13,18.24 -36.06,18.24 z"
       id="path42" />
    <path
       style="fill:url(#b)"
       class="c"
       d="m 328,601 c -9.25,0 -16.74,-3.51 -21.54,-9.27 -7.89,5.76 -17.27,9.27 -26.51,9.27 h -34.4 c -19.68,0 -31.43,-15.93 -26.18,-35.52 l 28.44,-106.13 c 5.25,-19.59 25.53,-35.53 45.21,-35.53 h 18.46 a 29.21,29.21 0 0 1 16.76,4.87 c 15.89,-5.79 30.73,-8.71 44.33,-8.71 29.35,0 43.07,12.3 49.42,22.62 8.55,13.93 10,31.71 4.34,52.87 l -18.76,70 C 402.32,585 382,601 362.36,601 Z"
       id="path44" />
    <path
       style="fill:url(#c)"
       class="d"
       d="m 419.19,603.61 c -22.84,0 -39.49,-6.44 -49.48,-19.12 -7.11,-9 -14.12,-25.25 -7.13,-51.32 a 83.52,83.52 0 0 1 24.7,-40.43 l -1.8,-16.28 c -1,-8.85 1.91,-18.46 8.11,-27.08 a 51.68,51.68 0 0 1 24.94,-18.67 224.06,224.06 0 0 1 25.82,-7 174.41,174.41 0 0 1 36,-4 c 24.34,0 42,7.37 52.6,21.91 7.25,10 14.24,27.94 6.47,56.94 L 521.5,565.45 C 516.28,585 496,601 476.31,601 h -16.44 a 25.14,25.14 0 0 1 -12.94,-3.34 70.56,70.56 0 0 1 -27.74,5.95 z"
       id="path46" />
    <path
       style="fill:url(#d)"
       class="e"
       d="m 553.6,603.61 c -27.42,0 -48.13,-8 -61.58,-23.64 -9.79,-11.4 -19.5,-32.38 -10.09,-67.48 a 125.1,125.1 0 0 1 70.27,-82.14 124.87,124.87 0 0 1 50.68,-10.65 c 20.92,0 37.71,4.65 49.89,13.84 12.35,9.3 13.26,27.73 2.18,43.81 l -14.54,21.09 a 52.53,52.53 0 0 1 -13.2,13.23 25.13,25.13 0 0 1 6.13,13.24 l 3.23,21 c 2.46,16.08 -8.32,34.51 -25.65,43.82 -17.1,9.27 -36.39,13.88 -57.32,13.88 z"
       id="path48" />
    <path
       style="fill:url(#e)"
       class="f"
       d="m 683,601 c -7.42,0 -13.88,-2.28 -18.66,-6.33 a 44.19,44.19 0 0 1 -22,6.33 h -34.46 c -19.68,0 -31.42,-15.93 -26.17,-35.52 l 42.67,-159.26 c 5.25,-19.59 25.53,-35.53 45.21,-35.53 H 704 c 19.68,0 31.42,15.94 26.17,35.53 L 725,425.39 a 41.64,41.64 0 0 1 14.84,-2.88 c 10.13,0 18.67,4.3 23.42,11.81 l 13.87,21.93 c 4.71,7.45 5.29,17.44 1.58,27.39 a 50.88,50.88 0 0 1 -21.12,25 l -5.73,3.49 12,34.85 c 3.75,10.92 0.34,24.62 -8.91,35.78 C 745.7,593.92 731.81,601 718.88,601 Z"
       id="path50" />
    <path
       style="fill:url(#f)"
       class="g"
       d="m 859.94,603.37 c -15.15,0 -26.13,-9.56 -27.32,-23.79 l -0.9,-10.83 h -15.64 l -5.51,8.74 c -8.85,14 -24.87,23.47 -39.87,23.47 h -33.31 c -11.81,0 -21.28,-5.79 -25.33,-15.51 -4.05,-9.72 -2.17,-21.89 5,-32.78 l 100.26,-153 c 8.91,-13.6 24.74,-22.75 39.4,-22.75 h 37.67 c 14.75,0 25.69,9.23 27.24,23 L 939,555.27 c 1.22,10.88 -3.53,23.09 -12.71,32.68 -9.18,9.59 -21.79,15.42 -33.56,15.42 z"
       id="path52" />
    <path
       style="fill:url(#g)"
       class="h"
       d="m 896.42,653.61 c -19.68,0 -31.42,-15.93 -26.17,-35.52 L 912.73,459.55 C 918,440 938.26,424 957.94,424 h 17.19 a 26.63,26.63 0 0 1 9.26,1.59 q 1.79,-0.62 3.57,-1.2 a 94.53,94.53 0 0 1 28.8,-4.71 c 26.19,0 46,7.81 58.92,23.21 13.56,16.2 16.51,39 8.78,67.9 -7.78,29 -23,52.17 -45.38,68.74 a 119.74,119.74 0 0 1 -59,23.26 l -4.08,15.3 c -5.25,19.59 -25.53,35.52 -45.21,35.52 z"
       id="path54" />
    <path
       style="fill:url(#h)"
       class="i"
       d="m 1027.76,653.61 c -19.68,0 -31.42,-15.93 -26.17,-35.52 l 42.48,-158.54 C 1049.32,440 1069.6,424 1089.28,424 h 17.19 a 26.63,26.63 0 0 1 9.26,1.59 c 1.19,-0.41 2.37,-0.81 3.56,-1.2 a 94.59,94.59 0 0 1 28.81,-4.71 c 26.19,0 46,7.81 58.91,23.21 13.57,16.2 16.52,39 8.79,67.9 -7.78,29 -23,52.17 -45.38,68.74 a 119.74,119.74 0 0 1 -59,23.26 l -4.09,15.28 c -5.25,19.59 -25.53,35.52 -45.22,35.52 z"
       id="path56" />
    <path
       style="fill:#ffffff"
       class="j"
       d="m 187.6,567.88 -23.54,-65.47 c -0.81,-2.26 -4.67,-1.29 -5.37,1.36 l -16,59.71 a 7.44,7.44 0 0 1 -6.81,5.23 H 95.79 a 3.94,3.94 0 0 1 -4,-5.23 l 41.64,-155.42 a 7.44,7.44 0 0 1 6.81,-5.23 h 40.09 a 3.94,3.94 0 0 1 4,5.23 l -14.81,55.27 c -0.7,2.62 2.56,3.61 4.6,1.4 l 55,-59.48 a 7.34,7.34 0 0 1 5.21,-2.42 h 42.34 c 4.36,0 5.65,4.74 2.25,8.21 l -65.64,66.86 a 2.84,2.84 0 0 0 -0.86,2.82 l 28.23,81.77 c 1.2,3.49 -2.58,7.9 -6.77,7.9 h -42.34 a 4,4 0 0 1 -3.94,-2.51 z"
       id="path58" />
    <path
       style="fill:#ffffff"
       class="j"
       d="m 314.45,492.3 -19.6,73.14 a 7.42,7.42 0 0 1 -6.8,5.23 h -34.39 a 3.94,3.94 0 0 1 -4,-5.23 L 278.1,459.31 a 7.44,7.44 0 0 1 6.81,-5.23 h 18.45 a 4,4 0 0 1 3.91,2.41 l 3.73,9.61 q 30.57,-15.87 53.41,-15.87 21.85,0 29.46,12.38 7.61,12.38 2.13,32.82 l -18.76,70 a 7.44,7.44 0 0 1 -6.81,5.23 h -34.34 a 3.94,3.94 0 0 1 -4,-5.23 l 17.67,-65.93 q 1.61,-6 -0.31,-10 -1.92,-4 -8.87,-4 a 50.63,50.63 0 0 0 -11.72,2 129,129 0 0 0 -14.41,4.8 z"
       id="path60" />
    <path
       style="fill:#ffffff"
       class="j"
       d="m 419.1,487.52 -2.41,-21.78 c -0.3,-2.69 1.9,-5.65 4.93,-6.69 a 187,187 0 0 1 21.47,-5.82 140.6,140.6 0 0 1 29.18,-3.23 q 24.08,0 33.51,13 9.43,13 3.38,35.58 l -17.92,66.89 a 7.45,7.45 0 0 1 -6.81,5.23 H 468 l -6.61,-8.21 c -1.62,-2 -5.06,-1.93 -7.69,0.16 q -13.44,10.7 -26.38,10.7 -22.33,0 -30.86,-10.82 -8.53,-10.82 -3.57,-29.33 Q 402,499 449.19,499 h 14.4 q 0.81,-6.72 -2.38,-10.1 -3.19,-3.38 -9.65,-3.36 a 71.62,71.62 0 0 0 -15.07,2 q -6,1.35 -11.39,3.05 c -3.03,1.03 -5.71,-0.38 -6,-3.07 z m 11.71,44.93 c -0.65,2.4 -0.39,4.37 0.78,5.89 a 6.15,6.15 0 0 0 5.22,2.28 q 7.69,0 17.63,-6.49 l 3,-11.06 H 443.5 a 13.13,13.13 0 0 0 -8,2.65 12.09,12.09 0 0 0 -4.69,6.73 z"
       id="path62" />
    <path
       style="fill:#ffffff"
       class="j"
       d="m 630.18,465.59 -14.53,21.08 c -1.88,2.73 -5.47,4 -7.93,2.81 a 39.51,39.51 0 0 0 -6.71,-2.59 43.37,43.37 0 0 0 -11.31,-1.32 q -9.45,0 -18.51,7.45 a 36.84,36.84 0 0 0 -12.3,19.47 q -3.15,11.79 2,18.52 5.15,6.73 14.83,6.73 a 53.61,53.61 0 0 0 12,-1.33 57.2,57.2 0 0 0 8.08,-2.54 c 3.11,-1.2 6,0.07 6.45,2.8 l 3.23,21.05 c 0.36,2.34 -1.25,5 -3.81,6.39 q -17.15,9.21 -40,9.21 -29.81,0 -43.52,-16 -13.71,-16 -6,-44.84 a 84.14,84.14 0 0 1 17.27,-33.41 80.41,80.41 0 0 1 29,-21.64 89,89 0 0 1 36.34,-7.43 q 22.83,0 35,9.21 c 1.86,1.36 2.04,4.04 0.42,6.38 z"
       id="path64" />
    <path
       style="fill:#ffffff"
       class="j"
       d="m 665.14,535.77 -7.95,29.67 a 7.44,7.44 0 0 1 -6.81,5.23 H 616 a 3.94,3.94 0 0 1 -4,-5.23 l 42.67,-159.26 a 7.44,7.44 0 0 1 6.81,-5.23 h 34.38 a 3.94,3.94 0 0 1 4,5.23 l -18.77,70 c -1.19,4.45 3.54,6.87 7.82,4 l 39,-26.18 c 2.75,-1.85 6.05,-1.6 7.41,0.55 l 13.87,21.93 c 1.45,2.29 0.14,5.8 -2.86,7.62 l -28.11,17.12 c -2.63,1.61 -4,4.56 -3.24,6.85 l 18.78,54.66 c 1.2,3.49 -2.58,7.9 -6.76,7.9 h -35.94 a 3.94,3.94 0 0 1 -4,-2.78 l -9.87,-35.3 c -0.8,-2.85 -4.4,-3.67 -7.58,-1.72 l -1.19,0.73 a 7.25,7.25 0 0 0 -3.28,4.21 z"
       id="path66" />
    <path
       style="fill:#ffffff"
       class="j"
       d="m 742.34,563.6 100.26,-153 a 7.48,7.48 0 0 1 6,-3.39 h 37.68 a 3.88,3.88 0 0 1 4.15,3.42 L 907.84,566 c 0.38,3.41 -3.2,7 -7,7 h -32.78 a 3.89,3.89 0 0 1 -4.17,-3.55 L 861.59,542 a 3.87,3.87 0 0 0 -4.16,-3.54 h -50.65 a 7.46,7.46 0 0 0 -6,3.5 l -15.89,25.21 a 7.47,7.47 0 0 1 -6,3.5 h -33.38 c -3.77,0 -5.41,-3.67 -3.17,-7.07 z m 82.24,-59.52 h 33 l -5,-44.47 z"
       id="path68" />
    <path
       style="fill:#ffffff"
       class="j"
       d="m 1049.34,465.37 q 12.87,15.39 4.83,45.44 -8.18,30.54 -29.72,46.52 -21.54,15.98 -50.84,16 a 45.63,45.63 0 0 1 -15.24,-2.41 l -12.64,47.18 a 7.44,7.44 0 0 1 -6.81,5.23 h -34.38 a 3.94,3.94 0 0 1 -4,-5.23 L 943,459.55 a 7.44,7.44 0 0 1 6.81,-5.23 H 967 l 5.14,6.73 a 94.6,94.6 0 0 1 18.2,-8.05 59.83,59.83 0 0 1 18.31,-3 q 27.8,0 40.69,15.37 z M 996.11,532 q 7.77,-7.69 11.32,-20.92 3.55,-13.23 -0.27,-20.31 -3.81,-7.1 -14.48,-7.09 -5.22,0 -11.89,3.6 l -13.21,49.28 a 27.34,27.34 0 0 0 12.07,3.13 q 8.69,-0.03 16.46,-7.69 z"
       id="path70" />
    <path
       style="fill:#ffffff"
       class="j"
       d="m 1180.68,465.37 q 12.87,15.39 4.83,45.44 -8.19,30.54 -29.72,46.52 -21.53,15.98 -50.84,16 a 45.54,45.54 0 0 1 -15.24,-2.41 l -12.64,47.18 a 7.44,7.44 0 0 1 -6.81,5.23 h -34.38 a 3.94,3.94 0 0 1 -4,-5.23 l 42.48,-158.54 a 7.42,7.42 0 0 1 6.8,-5.23 h 17.19 l 5.15,6.73 a 94.79,94.79 0 0 1 18.17,-8.06 59.88,59.88 0 0 1 18.31,-3 q 27.81,0 40.7,15.37 z M 1127.45,532 q 7.77,-7.69 11.32,-20.92 3.55,-13.23 -0.27,-20.31 -3.81,-7.1 -14.49,-7.09 -5.21,0 -11.89,3.6 l -13.2,49.28 a 27.34,27.34 0 0 0 12.07,3.13 q 8.69,-0.03 16.46,-7.69 z"
       id="path72" />
  </g>
</svg>
