<svg width="27" height="16" viewBox="0 0 27 16" fill="none" xmlns="http://www.w3.org/2000/svg">
<path d="M1.94383 8.93584H23.1043L18.4227 13.5727C18.0485 13.9433 18.0485 14.5514 18.4227 14.922C18.7968 15.2926 19.4012 15.2926 19.7754 14.922L26.0975 8.66029C26.1865 8.57238 26.257 8.46797 26.3052 8.35302C26.3533 8.23808 26.3781 8.11485 26.3781 7.99041C26.3781 7.86597 26.3533 7.74274 26.3052 7.6278C26.257 7.51285 26.1865 7.40844 26.0975 7.32053L19.785 1.04932C19.6961 0.961354 19.5907 0.891572 19.4746 0.843963C19.3586 0.796354 19.2342 0.771851 19.1086 0.771851C18.983 0.771851 18.8586 0.796354 18.7426 0.843963C18.6265 0.891572 18.5211 0.961354 18.4323 1.04932C18.3434 1.13729 18.273 1.24173 18.2249 1.35667C18.1768 1.4716 18.1521 1.59479 18.1521 1.7192C18.1521 1.84361 18.1768 1.9668 18.2249 2.08174C18.273 2.19668 18.3434 2.30111 18.4323 2.38908L23.1043 7.03548H1.94383C1.41618 7.03548 0.98447 7.46306 0.98447 7.98566C0.98447 8.50826 1.41618 8.93584 1.94383 8.93584Z" fill="white"/>
</svg>
