<svg width="17" height="17" viewBox="0 0 17 17" fill="none" xmlns="http://www.w3.org/2000/svg">
<path d="M8.78906 0.829102C4.37121 0.829102 0.789062 4.28359 0.789062 8.544C0.789062 12.8044 4.37121 16.2589 8.78906 16.2589C13.2069 16.2589 16.7891 12.8044 16.7891 8.544C16.7891 4.28359 13.2069 0.829102 8.78906 0.829102ZM8.78906 13.0214C8.39442 13.0214 8.07478 12.7131 8.07478 12.3326C8.07478 11.952 8.39442 11.6437 8.78906 11.6437C9.18371 11.6437 9.50335 11.952 9.50335 12.3326C9.50335 12.7131 9.18371 13.0214 8.78906 13.0214ZM9.91228 9.24144C9.75056 9.30167 9.61141 9.40749 9.51298 9.54511C9.41456 9.68273 9.36141 9.84576 9.36049 10.0129V10.4038C9.36049 10.4796 9.29621 10.5416 9.21763 10.5416H8.36049C8.28192 10.5416 8.21763 10.4796 8.21763 10.4038V10.0336C8.21763 9.6358 8.33728 9.24317 8.57299 8.91597C8.80335 8.59566 9.12478 8.35113 9.50335 8.21164C10.1105 7.98605 10.5033 7.49526 10.5033 6.95969C10.5033 6.20026 9.73371 5.58203 8.78906 5.58203C7.84442 5.58203 7.07478 6.20026 7.07478 6.95969V7.09057C7.07478 7.16634 7.01049 7.22834 6.93192 7.22834H6.07478C5.99621 7.22834 5.93192 7.16634 5.93192 7.09057V6.95969C5.93192 6.28292 6.23906 5.65092 6.79621 5.18079C7.33192 4.72788 8.03906 4.4799 8.78906 4.4799C9.53906 4.4799 10.2462 4.7296 10.7819 5.18079C11.3391 5.65092 11.6462 6.28292 11.6462 6.95969C11.6462 7.95505 10.9658 8.85053 9.91228 9.24144Z" fill="#191919"/>
</svg>
