<svg width="13" height="18" viewBox="0 0 13 18" fill="none" xmlns="http://www.w3.org/2000/svg">
<path d="M9.15039 4.42L6.50039 1.76999L3.85039 4.42L3.15039 3.72L6.50039 0.369995L9.85039 3.72L9.15039 4.42Z" fill="#E03170"/>
<path d="M6 1.07001H7V11.57H6V1.07001Z" fill="#E03170"/>
<path d="M11.5 17.57H1.5C0.65 17.57 0 16.92 0 16.07V7.07001C0 6.22001 0.65 5.57001 1.5 5.57001H5V6.57001H1.5C1.2 6.57001 1 6.77001 1 7.07001V16.07C1 16.37 1.2 16.57 1.5 16.57H11.5C11.8 16.57 12 16.37 12 16.07V7.07001C12 6.77001 11.8 6.57001 11.5 6.57001H8V5.57001H11.5C12.35 5.57001 13 6.22001 13 7.07001V16.07C13 16.92 12.35 17.57 11.5 17.57Z" fill="#E03170"/>
</svg>
